<?xml version="1.0" encoding="UTF-8"?>
<svg id="Layer_2" data-name="Layer 2" xmlns="http://www.w3.org/2000/svg" xmlns:xlink="http://www.w3.org/1999/xlink" viewBox="0 0 225.11 253.74">
  <defs>
    <style>
      .cls-1 {
        fill: #fff;
      }

      .cls-2 {
        fill: #e6aa31;
      }

      .cls-3 {
        fill: #e3e4e9;
      }

      .cls-4 {
        filter: url(#drop-shadow-1);
      }

      .cls-5 {
        fill: #dc8c29;
      }

      .cls-6 {
        fill: #f7cd45;
      }

      .cls-7 {
        fill: #f4af64;
      }
    </style>
    <filter id="drop-shadow-1" filterUnits="userSpaceOnUse">
      <feOffset dx="3" dy="3"/>
      <feGaussianBlur result="blur" stdDeviation="5"/>
      <feFlood flood-color="#000" flood-opacity=".4"/>
      <feComposite in2="blur" operator="in"/>
      <feComposite in="SourceGraphic"/>
    </filter>
  </defs>
  <g id="Layer_1-2" data-name="Layer 1">
    <g>
      <path class="cls-2" d="m225.11,73.44v106.86c0,7.15-3.82,13.75-10.02,17.33l-92.53,53.42c-6.2,3.58-13.82,3.58-20.02,0l-41.15-23.76-51.38-29.66c-6.2-3.58-10.01-10.18-10.01-17.33v-106.86c0-7.15,3.82-13.75,10.01-17.33L102.55,2.68c4.35-2.51,9.4-3.26,14.16-2.25,2.03.43,4.01,1.17,5.85,2.25l73.51,42.44,19.02,10.98c6.2,3.58,10.02,10.18,10.02,17.33Z"/>
      <path class="cls-6" d="m196.07,45.13L61.4,227.29l-51.38-29.66c-6.2-3.58-10.01-10.18-10.01-17.33v-22L116.71.44c2.03.43,4.01,1.17,5.85,2.25l73.51,42.44Z"/>
      <path class="cls-5" d="m212.8,179.87v-101.46c0-3.87-2.07-7.45-5.42-9.39L119.51,18.28c-3.35-1.94-7.49-1.94-10.84,0L20.8,69.01c-3.35,1.94-5.42,5.52-5.42,9.39v101.46c0,3.87,2.07,7.45,5.42,9.39l87.87,50.73c3.35,1.94,7.49,1.94,10.84,0l87.87-50.73c3.35-1.94,5.42-5.52,5.42-9.39Z"/>
      <path class="cls-7" d="m175.23,49.07L57.22,208.91l-38.02-21.96c-3.31-1.91-5.36-5.46-5.36-9.29v-58.2l63.8-86.43,29.55-17.05c3.32-1.91,7.41-1.91,10.73,0l57.31,33.09Z"/>
      <path class="cls-3" d="m162.14,47.39c-.41,2.34-2.22,4.2-4.54,4.67,2.32.47,4.13,2.33,4.54,4.67.41-2.34,2.22-4.2,4.54-4.67-2.32-.47-4.13-2.33-4.54-4.67Z"/>
      <path class="cls-1" d="m152.07,27.66c-.69,3.96-3.76,7.1-7.68,7.89,3.92.79,6.98,3.93,7.68,7.89.69-3.96,3.75-7.1,7.68-7.89-3.92-.79-6.98-3.93-7.68-7.89Z"/>
      <path class="cls-1" d="m39.33,190.33c-.69,3.96-3.75,7.1-7.68,7.89,3.92.79,6.98,3.93,7.68,7.89.69-3.96,3.75-7.1,7.68-7.89-3.92-.79-6.98-3.93-7.68-7.89Z"/>
      <path id="Path_38005" data-name="Path 38005" class="cls-4" d="m165.1,188.27h-39.68c-25.47,0-34.35-11.84-34.35-33.16v-90.02l22.5-13.03v106.13c-.03,5.85,4.69,10.63,10.54,10.66.04,0,.08,0,.12,0h26.06c2.85,5.91,6.65,11.31,11.25,15.99h0c.88,1.42,2.1,2.6,3.55,3.43Z"/>
    </g>
  </g>
</svg>